<svg width="40" height="40" viewBox="0 0 40 40" fill="none" xmlns="http://www.w3.org/2000/svg">
<path d="M33.3333 20C33.3333 16.4638 31.9286 13.0724 29.4281 10.5719C26.9276 8.0714 23.5362 6.66665 20 6.66665C16.4638 6.66665 13.0724 8.0714 10.5719 10.5719C8.0714 13.0724 6.66665 16.4638 6.66665 20V26.6666H11.6666C12.1087 26.6666 12.5326 26.8422 12.8452 27.1548C13.1577 27.4674 13.3333 27.8913 13.3333 28.3333V33.3333H26.6666V28.3333C26.6666 27.8913 26.8422 27.4674 27.1548 27.1548C27.4674 26.8422 27.8913 26.6666 28.3333 26.6666H33.3333V20ZM30 30V35C30 35.442 29.8244 35.8659 29.5118 36.1785C29.1993 36.4911 28.7753 36.6666 28.3333 36.6666H11.6666C11.2246 36.6666 10.8007 36.4911 10.4881 36.1785C10.1756 35.8659 9.99998 35.442 9.99998 35V30H4.99998C4.55795 30 4.13403 29.8244 3.82147 29.5118C3.50891 29.1993 3.33331 28.7753 3.33331 28.3333V20C3.33331 10.795 10.795 3.33331 20 3.33331C29.205 3.33331 36.6666 10.795 36.6666 20V28.3333C36.6666 28.7753 36.4911 29.1993 36.1785 29.5118C35.8659 29.8244 35.442 30 35 30H30ZM12.5 23.3333C12.1717 23.3333 11.8466 23.2687 11.5433 23.143C11.24 23.0174 10.9644 22.8332 10.7322 22.6011C10.5001 22.3689 10.3159 22.0933 10.1903 21.79C10.0646 21.4867 9.99998 21.1616 9.99998 20.8333C9.99998 20.505 10.0646 20.1799 10.1903 19.8766C10.3159 19.5733 10.5001 19.2977 10.7322 19.0655C10.9644 18.8334 11.24 18.6493 11.5433 18.5236C11.8466 18.398 12.1717 18.3333 12.5 18.3333C13.163 18.3333 13.7989 18.5967 14.2677 19.0655C14.7366 19.5344 15 20.1703 15 20.8333C15 21.4964 14.7366 22.1322 14.2677 22.6011C13.7989 23.0699 13.163 23.3333 12.5 23.3333ZM27.5 23.3333C27.1717 23.3333 26.8466 23.2687 26.5433 23.143C26.24 23.0174 25.9644 22.8332 25.7322 22.6011C25.5001 22.3689 25.3159 22.0933 25.1903 21.79C25.0646 21.4867 25 21.1616 25 20.8333C25 20.505 25.0646 20.1799 25.1903 19.8766C25.3159 19.5733 25.5001 19.2977 25.7322 19.0655C25.9644 18.8334 26.24 18.6493 26.5433 18.5236C26.8466 18.398 27.1717 18.3333 27.5 18.3333C28.163 18.3333 28.7989 18.5967 29.2677 19.0655C29.7366 19.5344 30 20.1703 30 20.8333C30 21.4964 29.7366 22.1322 29.2677 22.6011C28.7989 23.0699 28.163 23.3333 27.5 23.3333Z" fill="#0B0914"/>
</svg>
